HIERARCHY
ROOT Hips
{
	OFFSET -0.000008 104.274872 1.554316
	CHANNELS 6 Xposition Yposition Zposition Xrotation Yrotation Zrotation
	JOINT Spine
	{
		OFFSET -0.000005 10.181595 0.131521
		CHANNELS 6 Xposition Yposition Zposition Xrotation Yrotation Zrotation
		JOINT Spine1
		{
			OFFSET -0.000000 9.893959 -1.470711
			CHANNELS 6 Xposition Yposition Zposition Xrotation Yrotation Zrotation
			JOINT Spine2
			{
				OFFSET -0.000000 9.220757 -1.370642
				CHANNELS 3 Xrotation Yrotation Zrotation
				JOINT Neck
				{
					OFFSET 0.000001 16.740417 -2.049038
					CHANNELS 6 Xposition Yposition Zposition Xrotation Yrotation Zrotation
					JOINT Head
					{
						OFFSET 0.000000 9.617874 1.685009
						CHANNELS 6 Xposition Yposition Zposition Xrotation Yrotation Zrotation
						JOINT HeadTop_End
						{
							OFFSET 0.000002 22.037384 7.501098
							CHANNELS 6 Xposition Yposition Zposition Xrotation Yrotation Zrotation
							End Site
							{
								OFFSET 0.000002 23.106583 -2.828261
							}
						}
					}
				}
				JOINT RightShoulder
				{
					OFFSET -4.569969 11.014923 -2.160886
					CHANNELS 6 Xposition Yposition Zposition Xrotation Yrotation Zrotation
					JOINT RightArm
					{
						OFFSET -10.592850 -0.524811 -2.232100
						CHANNELS 3 Xrotation Yrotation Zrotation
						JOINT RightForeArm
						{
							OFFSET -27.841520 0.000015 -0.000005
							CHANNELS 6 Xposition Yposition Zposition Xrotation Yrotation Zrotation
							JOINT RightHand
							{
								OFFSET -28.328838 -0.000015 0.000018
								CHANNELS 6 Xposition Yposition Zposition Xrotation Yrotation Zrotation
								JOINT RightHandThumb1
								{
									OFFSET -2.464806 -1.573990 2.681853
									CHANNELS 6 Xposition Yposition Zposition Xrotation Yrotation Zrotation
									JOINT RightHandThumb2
									{
										OFFSET -3.215195 -1.872772 1.924282
										CHANNELS 6 Xposition Yposition Zposition Xrotation Yrotation Zrotation
										JOINT RightHandThumb3
										{
											OFFSET -2.654823 -1.527985 1.512609
											CHANNELS 6 Xposition Yposition Zposition Xrotation Yrotation Zrotation
											JOINT RightHandThumb4
											{
												OFFSET -2.018822 -1.152008 1.108055
												CHANNELS 3 Xrotation Yrotation Zrotation
												End Site
												{
													OFFSET -1.888100 -1.145340 1.324313
												}
											}
										}
									}
								}
								JOINT RightHandIndex1
								{
									OFFSET -9.108284 -0.517868 2.259835
									CHANNELS 6 Xposition Yposition Zposition Xrotation Yrotation Zrotation
									JOINT RightHandIndex2
									{
										OFFSET -3.699997 0.000000 0.001215
										CHANNELS 3 Xrotation Yrotation Zrotation
										JOINT RightHandIndex3
										{
											OFFSET -2.850014 0.000031 -0.000522
											CHANNELS 3 Xrotation Yrotation Zrotation
											JOINT RightHandIndex4
											{
												OFFSET -2.772179 -0.000015 -0.000019
												CHANNELS 3 Xrotation Yrotation Zrotation
												End Site
												{
													OFFSET -2.772186 0.000000 -0.000502
												}
											}
										}
									}
								}
								JOINT RightHandMiddle1
								{
									OFFSET -9.532509 -0.000046 -0.000025
									CHANNELS 6 Xposition Yposition Zposition Xrotation Yrotation Zrotation
									JOINT RightHandMiddle2
									{
										OFFSET -3.700012 0.000000 0.003713
										CHANNELS 3 Xrotation Yrotation Zrotation
										JOINT RightHandMiddle3
										{
											OFFSET -2.949989 0.000015 -0.002054
											CHANNELS 3 Xrotation Yrotation Zrotation
											JOINT RightHandMiddle4
											{
												OFFSET -2.946625 0.000000 -0.000154
												CHANNELS 3 Xrotation Yrotation Zrotation
												End Site
												{
													OFFSET -2.946632 0.000015 -0.001136
												}
											}
										}
									}
								}
								JOINT RightHandRing1
								{
									OFFSET -9.103600 -0.043076 -1.865135
									CHANNELS 6 Xposition Yposition Zposition Xrotation Yrotation Zrotation
									JOINT RightHandRing2
									{
										OFFSET -3.379272 0.000000 -0.001054
										CHANNELS 3 Xrotation Yrotation Zrotation
										JOINT RightHandRing3
										{
											OFFSET -2.889694 0.000015 0.000379
											CHANNELS 3 Xrotation Yrotation Zrotation
											JOINT RightHandRing4
											{
												OFFSET -2.638809 0.000000 0.000941
												CHANNELS 3 Xrotation Yrotation Zrotation
												End Site
												{
													OFFSET -2.638802 0.000000 0.005160
												}
											}
										}
									}
								}
								JOINT RightHandPinky1
								{
									OFFSET -8.076675 -0.486710 -3.806280
									CHANNELS 6 Xposition Yposition Zposition Xrotation Yrotation Zrotation
									JOINT RightHandPinky2
									{
										OFFSET -3.600006 -0.000031 -0.003747
										CHANNELS 3 Xrotation Yrotation Zrotation
										JOINT RightHandPinky3
										{
											OFFSET -2.099976 -0.000015 -0.005740
											CHANNELS 3 Xrotation Yrotation Zrotation
											JOINT RightHandPinky4
											{
												OFFSET -2.115776 -0.000031 -0.003680
												CHANNELS 3 Xrotation Yrotation Zrotation
												End Site
												{
													OFFSET -2.115776 -0.000015 -0.003507
												}
											}
										}
									}
								}
							}
						}
					}
				}
				JOINT LeftShoulder
				{
					OFFSET 4.570447 11.014725 -2.160858
					CHANNELS 6 Xposition Yposition Zposition Xrotation Yrotation Zrotation
					JOINT LeftArm
					{
						OFFSET 10.592371 -0.524597 -2.232121
						CHANNELS 3 Xrotation Yrotation Zrotation
						JOINT LeftForeArm
						{
							OFFSET 27.841520 -0.000015 0.000023
							CHANNELS 3 Xrotation Yrotation Zrotation
							JOINT LeftHand
							{
								OFFSET 28.328835 -0.000046 0.000017
								CHANNELS 6 Xposition Yposition Zposition Xrotation Yrotation Zrotation
								JOINT LeftHandThumb1
								{
									OFFSET 2.466141 -1.576187 2.681734
									CHANNELS 6 Xposition Yposition Zposition Xrotation Yrotation Zrotation
									JOINT LeftHandThumb2
									{
										OFFSET 3.217804 -1.872055 1.916487
										CHANNELS 6 Xposition Yposition Zposition Xrotation Yrotation Zrotation
										JOINT LeftHandThumb3
										{
											OFFSET 2.656021 -1.528809 1.514508
											CHANNELS 6 Xposition Yposition Zposition Xrotation Yrotation Zrotation
											JOINT LeftHandThumb4
											{
												OFFSET 2.020889 -1.154068 1.115132
												CHANNELS 6 Xposition Yposition Zposition Xrotation Yrotation Zrotation
												End Site
												{
													OFFSET 1.908852 -1.150833 1.300490
												}
											}
										}
									}
								}
								JOINT LeftHandIndex1
								{
									OFFSET 9.109306 -0.518036 2.259871
									CHANNELS 6 Xposition Yposition Zposition Xrotation Yrotation Zrotation
									JOINT LeftHandIndex2
									{
										OFFSET 3.699997 -0.000015 -0.000323
										CHANNELS 3 Xrotation Yrotation Zrotation
										JOINT LeftHandIndex3
										{
											OFFSET 2.850006 -0.000015 0.000350
											CHANNELS 3 Xrotation Yrotation Zrotation
											JOINT LeftHandIndex4
											{
												OFFSET 2.774857 -0.000015 -0.000027
												CHANNELS 3 Xrotation Yrotation Zrotation
												End Site
												{
													OFFSET 2.774864 0.000000 -0.000099
												}
											}
										}
									}
								}
								JOINT LeftHandMiddle1
								{
									OFFSET 9.533401 0.000031 0.000044
									CHANNELS 6 Xposition Yposition Zposition Xrotation Yrotation Zrotation
									JOINT LeftHandMiddle2
									{
										OFFSET 3.699997 0.000000 -0.000231
										CHANNELS 3 Xrotation Yrotation Zrotation
										JOINT LeftHandMiddle3
										{
											OFFSET 2.949997 -0.000015 -0.000059
											CHANNELS 3 Xrotation Yrotation Zrotation
											JOINT LeftHandMiddle4
											{
												OFFSET 2.952866 0.000000 0.000062
												CHANNELS 3 Xrotation Yrotation Zrotation
												End Site
												{
													OFFSET 2.952858 0.000000 0.000228
												}
											}
										}
									}
								}
								JOINT LeftHandRing1
								{
									OFFSET 9.104530 -0.043030 -1.865075
									CHANNELS 6 Xposition Yposition Zposition Xrotation Yrotation Zrotation
									JOINT LeftHandRing2
									{
										OFFSET 3.150009 0.000000 0.000042
										CHANNELS 3 Xrotation Yrotation Zrotation
										JOINT LeftHandRing3
										{
											OFFSET 2.949989 -0.000015 0.000040
											CHANNELS 3 Xrotation Yrotation Zrotation
											JOINT LeftHandRing4
											{
												OFFSET 2.644318 -0.000015 0.000056
												CHANNELS 6 Xposition Yposition Zposition Xrotation Yrotation Zrotation
												End Site
												{
													OFFSET 2.644318 0.000000 0.000120
												}
											}
										}
									}
								}
								JOINT LeftHandPinky1
								{
									OFFSET 8.077782 -0.486877 -3.806258
									CHANNELS 6 Xposition Yposition Zposition Xrotation Yrotation Zrotation
									JOINT LeftHandPinky2
									{
										OFFSET 3.599960 0.000031 0.014726
										CHANNELS 3 Xrotation Yrotation Zrotation
										JOINT LeftHandPinky3
										{
											OFFSET 2.099998 0.000031 0.007705
											CHANNELS 3 Xrotation Yrotation Zrotation
											JOINT LeftHandPinky4
											{
												OFFSET 2.125504 0.000000 0.007515
												CHANNELS 3 Xrotation Yrotation Zrotation
												End Site
												{
													OFFSET 2.125511 0.000015 0.006257
												}
											}
										}
									}
								}
							}
						}
					}
				}
			}
		}
	}
	JOINT RightUpLeg
	{
		OFFSET -8.207787 -6.751663 -1.599560
		CHANNELS 6 Xposition Yposition Zposition Xrotation Yrotation Zrotation
		JOINT RightLeg
		{
			OFFSET -0.000001 -44.370129 0.345939
			CHANNELS 3 Xrotation Yrotation Zrotation
			JOINT RightFoot
			{
				OFFSET 0.000001 -44.423679 -3.043537
				CHANNELS 3 Xrotation Yrotation Zrotation
				JOINT RightToeBase
				{
					OFFSET -0.000003 -8.728673 10.710563
					CHANNELS 6 Xposition Yposition Zposition Xrotation Yrotation Zrotation
					JOINT RightToe_End
					{
						OFFSET -0.000002 -0.000676 9.278122
						CHANNELS 6 Xposition Yposition Zposition Xrotation Yrotation Zrotation
						End Site
						{
							OFFSET -0.000003 -0.000676 9.278122
						}
					}
				}
			}
		}
	}
	JOINT LeftUpLeg
	{
		OFFSET 8.207791 -6.751694 -1.599555
		CHANNELS 6 Xposition Yposition Zposition Xrotation Yrotation Zrotation
		JOINT LeftLeg
		{
			OFFSET -0.000002 -44.370033 0.346957
			CHANNELS 3 Xrotation Yrotation Zrotation
			JOINT LeftFoot
			{
				OFFSET 0.000000 -44.423672 -3.044393
				CHANNELS 3 Xrotation Yrotation Zrotation
				JOINT LeftToeBase
				{
					OFFSET -0.000003 -8.728668 10.710562
					CHANNELS 6 Xposition Yposition Zposition Xrotation Yrotation Zrotation
					JOINT LeftToe_End
					{
						OFFSET -0.000003 -0.000676 9.278135
						CHANNELS 6 Xposition Yposition Zposition Xrotation Yrotation Zrotation
						End Site
						{
							OFFSET -0.000003 -0.000677 9.278135
						}
					}
				}
			}
		}
	}
}
MOTION
Frames: 4
Frame Time: 0.033333
-5.044396 99.427002 -0.471441 29.445137 -34.366643 16.322793 -0.000003 10.181586 0.131520 -1.093031 1.847517 2.754137 -0.000002 9.893945 -1.470709 -2.327882 2.532557 3.225523 -2.369180 2.507089 3.209296 -0.000002 16.740421 -2.049026 -3.122053 -0.860571 1.143162 0.000005 9.617886 1.685002 2.321499 -0.676333 -12.137126 0.000001 22.037369 7.501096 0.000000 0.000000 0.000000 -4.569966 11.014910 -2.160882 0.008572 -0.266775 -8.713552 -84.885174 23.358347 43.893866 -27.841515 0.000015 0.000007 -0.000005 28.328276 0.000001 -28.328814 0.000002 0.000020 -1.708145 5.504454 -46.426264 -2.464807 -1.573967 2.681850 -1.619256 -4.333939 -6.744829 -3.215215 -1.872782 1.924293 4.223210 -7.640269 -0.059988 -2.654818 -1.527986 1.512604 -1.560136 0.883053 -1.926119 0.000000 0.000006 0.000002 -9.108271 -0.517854 2.259829 0.000002 -0.018782 0.000099 -0.000001 0.029298 0.000019 -0.000001 -0.010101 0.000001 0.000001 -0.000001 0.000002 -9.532495 -0.000001 -0.000029 0.000002 -0.057483 0.000100 -0.000001 0.097399 -0.000001 -0.000000 -0.036901 0.000001 0.000000 -0.000005 -0.000002 -9.103593 -0.043057 -1.865138 0.000003 0.017916 0.000001 0.000008 -0.025390 0.000016 0.000002 -0.012899 0.000001 -0.000001 -0.000002 0.000002 -8.076678 -0.486693 -3.806283 -0.000000 0.059616 -0.000498 -0.000001 0.097002 0.000000 0.000002 -0.056902 0.000000 0.000001 -0.000000 0.000001 4.570452 11.014723 -2.160856 -0.444568 7.585106 -4.586101 28.864875 -50.378181 -65.747326 -0.000007 -8.153569 -0.000002 28.328854 -0.000060 0.000018 -32.020040 -6.643680 18.687230 2.466124 -1.576189 2.681729 -1.336445 4.338058 6.279182 3.217815 -1.872052 1.916493 3.576451 7.070879 0.589259 2.656013 -1.528789 1.514494 -0.821912 0.916464 2.391514 2.020904 -1.154066 1.115144 -0.000005 0.000001 -0.000003 9.109296 -0.518056 2.259866 0.000005 -0.005098 0.000106 0.000001 0.012004 0.000006 -0.000007 -0.007587 -0.000003 -0.000001 0.000000 0.000002 9.533405 0.000009 0.000038 0.000004 -0.005521 0.015984 0.000002 0.004332 -0.015978 -0.000005 0.002404 0.000008 0.000004 -0.000001 0.000002 9.104526 -0.043048 -1.865077 0.000003 0.000703 0.000105 0.000001 0.000004 -0.000003 -0.000002 -0.000000 0.000001 2.644315 0.000014 0.000055 -0.000001 -0.000003 -0.000005 8.077772 -0.486881 -3.806258 -0.020167 4.288537 0.510614 -0.016157 -4.078347 -0.510895 0.000004 -0.007698 0.000002 -0.000004 0.000002 0.000002 -8.207785 -6.751675 -1.599575 -43.826964 2.280641 -0.166538 25.140946 -3.167807 -3.070239 -5.170453 -0.415444 5.514874 -0.000005 -8.728669 10.710566 -0.000105 -0.000005 0.000000 -0.000002 -0.000676 9.278121 -0.000000 0.000002 -0.000000 8.207793 -6.751714 -1.599554 -23.138973 11.064595 7.399038 15.539495 10.528712 4.155741 -12.020709 14.084206 -13.655411 -0.000004 -8.728670 10.710560 -0.000212 0.000003 -0.000000 -0.000006 -0.000677 9.278139 0.000003 0.000000 -0.000000
-4.245919 99.431770 -0.780256 29.701545 -31.471910 17.183885 -0.000006 10.181585 0.131520 -0.849765 1.536306 2.973067 0.000000 9.893967 -1.470711 -1.939917 1.744725 3.123148 -1.971830 1.709050 3.118320 -0.000002 16.740427 -2.049030 -4.699279 -0.676249 0.625902 -0.000003 9.617887 1.685010 -0.981215 -0.428193 -12.881569 0.000004 22.037338 7.501106 -0.000001 0.000001 -0.000000 -4.569972 11.014928 -2.160883 0.043960 -0.138430 -8.366811 -83.370874 25.092474 40.319023 -27.841507 -0.000008 -0.000011 0.000013 32.331291 -0.000015 -28.328823 0.000007 0.000030 -15.029690 6.735104 -51.459448 -2.464822 -1.573966 2.681861 -1.619241 -4.333936 -6.744825 -3.215214 -1.872765 1.924269 4.223209 -7.640271 -0.059989 -2.654833 -1.527986 1.512611 -1.560137 0.883053 -1.926119 0.000000 -0.000007 -0.000001 -9.108298 -0.517860 2.259844 -0.000000 -0.018779 0.000104 -0.000001 0.029305 0.000021 -0.000001 -0.010102 0.000001 -0.000001 -0.000002 0.000000 -9.532517 0.000007 -0.000014 -0.000001 -0.057479 0.000105 0.000003 0.097401 0.000003 0.000004 -0.036902 0.000002 0.000000 0.000004 -0.000002 -9.103604 -0.043064 -1.865129 -0.000001 0.017920 0.000002 0.000010 -0.025390 0.000016 0.000002 -0.012899 -0.000002 0.000001 -0.000003 0.000000 -8.076693 -0.486696 -3.806272 -0.000006 0.059618 -0.000495 0.000001 0.097002 -0.000000 0.000003 -0.056906 -0.000000 0.000002 -0.000005 0.000001 4.570448 11.014751 -2.160851 -0.433414 7.487194 -4.485774 27.448090 -50.474080 -65.713346 -0.000001 -9.735012 0.000007 28.328831 -0.000045 0.000009 -32.987331 -9.249317 22.101865 2.466146 -1.576213 2.681738 -1.336450 4.338053 6.279179 3.217798 -1.872030 1.916488 3.576447 7.070886 0.589263 2.656036 -1.528804 1.514498 -0.821919 0.916467 2.391511 2.020900 -1.154068 1.115142 -0.000004 -0.000004 -0.000005 9.109316 -0.518063 2.259879 -0.000000 -0.005098 0.000104 0.000001 0.012006 0.000007 -0.000013 -0.007588 -0.000005 -0.000002 -0.000000 0.000003 9.533422 0.000022 0.000050 -0.000000 -0.005524 0.015980 0.000000 0.004330 -0.015979 -0.000004 0.002402 0.000007 -0.000002 -0.000001 0.000001 9.104543 -0.043053 -1.865067 -0.000004 0.000699 0.000105 -0.000002 0.000002 -0.000004 -0.000004 0.000001 0.000003 2.644308 -0.000018 0.000059 -0.000002 0.000003 0.000001 8.077785 -0.486872 -3.806253 -0.020170 4.288533 0.510612 -0.016154 -4.078349 -0.510899 0.000005 -0.007699 0.000001 -0.000000 0.000000 0.000004 -8.207789 -6.751670 -1.599565 -45.268168 1.802247 -2.351301 25.459602 -4.054291 -3.709600 -4.957782 -0.550302 6.341181 -0.000004 -8.728670 10.710564 -0.000103 0.000002 0.000004 -0.000001 -0.000676 9.278120 -0.000000 -0.000001 -0.000000 8.207789 -6.751697 -1.599556 -24.422082 9.949355 5.777282 15.155650 10.394094 3.621018 -11.712060 11.986140 -12.894524 -0.000002 -8.728669 10.710560 -0.147644 -0.000004 0.000001 -0.000000 -0.000677 9.278139 0.000003 -0.000000 -0.000000
-3.558412 99.297470 -0.959560 30.124423 -28.265543 18.440763 -0.000008 10.181584 0.131525 -0.653833 1.382776 3.214629 0.000000 9.893962 -1.470719 -1.622890 1.151308 2.737703 -1.647939 1.105819 2.738327 -0.000003 16.740414 -2.049027 -6.293187 -0.444329 0.219581 -0.000000 9.617866 1.685016 -5.894443 0.378634 -13.519289 0.000004 22.037354 7.501100 -0.000001 0.000003 -0.000001 -4.569969 11.014933 -2.160885 0.089432 0.108012 -8.217042 -85.230919 26.960833 35.612548 -27.841520 0.000012 0.000009 -0.000008 36.089405 0.000009 -28.328852 0.000001 0.000006 -24.216449 8.517061 -40.116016 -2.464830 -1.573954 2.681855 -1.619244 -4.333935 -6.744823 -3.215197 -1.872765 1.924286 4.223211 -7.640272 -0.059990 -2.654830 -1.527956 1.512621 -1.560136 0.883055 -1.926120 0.000000 -0.000001 -0.000003 -9.108290 -0.517856 2.259838 -0.000002 -0.018782 0.000101 -0.000001 0.029299 0.000020 -0.000000 -0.010100 0.000000 -0.000000 0.000002 0.000001 -9.532514 -0.000004 -0.000012 -0.000002 -0.057479 0.000101 0.000000 0.097396 -0.000001 0.000001 -0.036902 0.000000 0.000000 0.000000 -0.000000 -9.103595 -0.043061 -1.865131 -0.000002 0.017918 0.000001 0.000008 -0.025386 0.000016 0.000000 -0.012899 -0.000001 -0.000001 0.000004 -0.000000 -8.076690 -0.486690 -3.806288 -0.000007 0.059618 -0.000499 -0.000003 0.097007 0.000001 -0.000000 -0.056903 -0.000000 -0.000000 -0.000002 -0.000002 4.570447 11.014734 -2.160853 -0.409915 7.301475 -4.297666 27.720878 -50.585959 -64.942559 -0.000017 -10.681549 -0.000004 28.328838 -0.000039 0.000014 -32.146671 -10.990993 22.566494 2.466154 -1.576191 2.681731 -1.336448 4.338052 6.279176 3.217797 -1.872039 1.916486 3.576451 7.070882 0.589260 2.656026 -1.528809 1.514503 -0.821920 0.916471 2.391509 2.020889 -1.154065 1.115137 0.000001 -0.000002 -0.000003 9.109302 -0.518058 2.259866 0.000002 -0.005098 0.000106 -0.000001 0.012003 0.000001 -0.000015 -0.007590 -0.000003 -0.000000 -0.000001 0.000003 9.533420 0.000018 0.000044 0.000002 -0.005525 0.015984 0.000004 0.004329 -0.015978 -0.000005 0.002404 0.000006 -0.000001 -0.000000 0.000002 9.104545 -0.043039 -1.865080 -0.000001 0.000702 0.000104 -0.000000 0.000002 -0.000007 0.000000 0.000002 0.000001 2.644316 0.000018 0.000055 -0.000001 -0.000002 0.000001 8.077784 -0.486879 -3.806260 -0.020166 4.288537 0.510612 -0.016151 -4.078348 -0.510898 0.000002 -0.007700 0.000004 0.000005 -0.000004 -0.000004 -8.207788 -6.751668 -1.599560 -47.278300 1.590055 -4.928466 26.597494 -4.924368 -4.450102 -5.240638 -0.685410 7.306719 -0.000005 -8.728670 10.710563 -0.000103 -0.000001 0.000004 0.000000 -0.000676 9.278122 -0.000000 0.000001 -0.000000 8.207788 -6.751702 -1.599556 -25.798016 8.643183 3.650238 14.773183 10.133648 3.123510 -11.391086 10.425096 -12.173482 -0.000003 -8.728670 10.710561 -0.000058 0.000003 -0.000001 -0.000000 -0.000677 9.278141 0.000003 -0.000000 -0.000000
-3.236561 99.094597 -0.895834 30.753938 -26.528817 19.785694 -0.000006 10.181594 0.131525 -0.569117 1.590683 3.284787 -0.000001 9.893967 -1.470706 -1.494080 1.247208 2.006597 -1.525576 1.196016 2.010511 -0.000006 16.740406 -2.049031 -7.710181 -0.198655 -0.095931 0.000000 9.617927 1.685000 -10.996039 1.338558 -13.373590 0.000003 22.037369 7.501098 -0.000000 0.000004 -0.000000 -4.569973 11.014911 -2.160880 0.100209 0.182682 -8.251548 -83.896709 30.742050 26.635315 -27.841518 0.000013 0.000002 -0.000005 37.516713 0.000003 -28.328815 -0.000010 0.000029 -30.009030 2.196687 -25.707708 -2.464839 -1.573959 2.681863 -1.619244 -4.333942 -6.744818 -3.215190 -1.872780 1.924279 4.223208 -7.640271 -0.059989 -2.654823 -1.527992 1.512626 -1.560133 0.883052 -1.926121 -0.000003 -0.000004 -0.000004 -9.108315 -0.517855 2.259840 0.000001 -0.018792 0.000099 0.000000 0.029297 0.000020 0.000001 -0.010100 -0.000000 -0.000000 -0.000001 -0.000000 -9.532530 -0.000002 -0.000021 0.000002 -0.057488 0.000099 0.000002 0.097404 0.000000 0.000000 -0.036900 0.000000 0.000000 -0.000004 -0.000000 -9.103632 -0.043059 -1.865123 0.000002 0.017910 -0.000001 0.000008 -0.025388 0.000015 0.000001 -0.012901 -0.000001 0.000001 0.000007 0.000000 -8.076715 -0.486686 -3.806278 -0.000003 0.059619 -0.000502 0.000000 0.097001 0.000000 0.000002 -0.056898 -0.000000 -0.000000 0.000000 0.000000 4.570445 11.014725 -2.160851 -0.400939 7.239592 -4.249965 29.674696 -49.421620 -63.283041 0.000002 -10.741863 0.000001 28.328848 -0.000046 0.000017 -29.490534 -10.887131 20.349953 2.466142 -1.576216 2.681724 -1.336447 4.338053 6.279180 3.217801 -1.872050 1.916496 3.576449 7.070879 0.589262 2.656029 -1.528806 1.514499 -0.821923 0.916471 2.391510 2.020908 -1.154076 1.115134 -0.000001 -0.000002 -0.000005 9.109304 -0.518054 2.259865 0.000002 -0.005097 0.000105 -0.000000 0.012002 0.000002 -0.000011 -0.007590 -0.000002 -0.000000 0.000001 0.000001 9.533411 0.000011 0.000042 0.000003 -0.005522 0.015985 0.000001 0.004328 -0.015978 -0.000007 0.002399 -0.000000 0.000001 0.000000 -0.000000 9.104533 -0.043045 -1.865082 0.000001 0.000704 0.000105 -0.000000 0.000009 0.000001 0.000004 0.000002 0.000004 2.644315 0.000018 0.000059 -0.000001 0.000000 0.000001 8.077768 -0.486891 -3.806266 -0.020168 4.288534 0.510612 -0.016156 -4.078350 -0.510898 0.000006 -0.007697 0.000005 0.000004 0.000003 0.000001 -8.207789 -6.751653 -1.599563 -48.946983 2.143867 -6.489306 27.796870 -5.429430 -5.101263 -5.723823 -0.807290 8.098653 -0.000005 -8.728668 10.710564 -0.000088 0.000013 -0.000003 0.000001 -0.000676 9.278120 -0.000000 -0.000001 -0.000000 8.207791 -6.751695 -1.599557 -26.707686 7.975842 2.072636 14.622226 10.017637 2.685054 -11.410867 9.731094 -11.677363 -0.000004 -8.728669 10.710561 -0.000117 0.000008 -0.000002 -0.000005 -0.000677 9.278139 0.000003 0.000001 -0.000000
